<svg xmlns="http://www.w3.org/2000/svg" xmlns:xlink="http://www.w3.org/1999/xlink" contentScriptType="application/ecmascript" contentStyleType="text/css" height="430px" preserveAspectRatio="none" style="width:549px;height:430px;" version="1.1" viewBox="0 0 549 430" width="549px" zoomAndPan="magnify"><defs><filter height="300%" id="f1p0xe9bf5f9s8" width="300%" x="-1" y="-1"><feGaussianBlur result="blurOut" stdDeviation="2.0"/><feColorMatrix in="blurOut" result="blurOut2" type="matrix" values="0 0 0 0 0 0 0 0 0 0 0 0 0 0 0 0 0 0 .4 0"/><feOffset dx="4.0" dy="4.0" in="blurOut2" result="blurOut3"/><feBlend in="SourceGraphic" in2="blurOut3" mode="normal"/></filter></defs><g><text fill="#000000" font-family="sans-serif" font-size="18" lengthAdjust="spacingAndGlyphs" textLength="240" x="152.5" y="28.708">OpenID Connect Discovery</text><rect fill="#FFFFFF" filter="url(#f1p0xe9bf5f9s8)" height="131.5313" style="stroke:#FFFFFF;stroke-width:1.0;" width="10" x="148" y="153.2188"/><line style="stroke:#A80036;stroke-width:1.0;" x1="148" x2="148" y1="153.2188" y2="284.75"/><line style="stroke:#A80036;stroke-width:1.0;" x1="158" x2="158" y1="153.2188" y2="284.75"/><line style="stroke:#A80036;stroke-width:1.0;" x1="148" x2="158" y1="153.2188" y2="153.2188"/><rect fill="#FFFFFF" filter="url(#f1p0xe9bf5f9s8)" height="21.1328" style="stroke:#FFFFFF;stroke-width:1.0;" width="10" x="148" y="325.5547"/><line style="stroke:#A80036;stroke-width:1.0;" x1="148" x2="148" y1="325.5547" y2="346.6875"/><line style="stroke:#A80036;stroke-width:1.0;" x1="158" x2="158" y1="325.5547" y2="346.6875"/><line style="stroke:#A80036;stroke-width:1.0;" x1="148" x2="158" y1="346.6875" y2="346.6875"/><rect fill="#FFFFFF" filter="url(#f1p0xe9bf5f9s8)" height="131.5313" style="stroke:#FFFFFF;stroke-width:1.0;" width="10" x="405.5" y="153.2188"/><line style="stroke:#A80036;stroke-width:1.0;" x1="405.5" x2="405.5" y1="153.2188" y2="284.75"/><line style="stroke:#A80036;stroke-width:1.0;" x1="415.5" x2="415.5" y1="153.2188" y2="284.75"/><line style="stroke:#A80036;stroke-width:1.0;" x1="405.5" x2="415.5" y1="153.2188" y2="153.2188"/><rect fill="#FFFFFF" filter="url(#f1p0xe9bf5f9s8)" height="21.1328" style="stroke:#FFFFFF;stroke-width:1.0;" width="10" x="405.5" y="325.5547"/><line style="stroke:#A80036;stroke-width:1.0;" x1="405.5" x2="405.5" y1="325.5547" y2="346.6875"/><line style="stroke:#A80036;stroke-width:1.0;" x1="415.5" x2="415.5" y1="325.5547" y2="346.6875"/><line style="stroke:#A80036;stroke-width:1.0;" x1="405.5" x2="415.5" y1="346.6875" y2="346.6875"/><rect fill="#D3D3D3" filter="url(#f1p0xe9bf5f9s8)" height="75.3984" rx="2.5" ry="2.5" style="stroke:#000000;stroke-width:2.0;" width="525" x="10" y="114.9531"/><line style="stroke:#A80036;stroke-width:1.0;" x1="153" x2="153" y1="97.9531" y2="284.75"/><line style="stroke:#A80036;stroke-width:1.0;stroke-dasharray:1.0,4.0;" x1="153" x2="153" y1="284.75" y2="325.5547"/><line style="stroke:#A80036;stroke-width:1.0;" x1="153" x2="153" y1="325.5547" y2="364.6875"/><line style="stroke:#A80036;stroke-width:1.0;" x1="410" x2="410" y1="97.9531" y2="284.75"/><line style="stroke:#A80036;stroke-width:1.0;stroke-dasharray:1.0,4.0;" x1="410" x2="410" y1="284.75" y2="325.5547"/><line style="stroke:#A80036;stroke-width:1.0;" x1="410" x2="410" y1="325.5547" y2="364.6875"/><rect fill="#FEFECE" filter="url(#f1p0xe9bf5f9s8)" height="53" rx="2.5" ry="2.5" style="stroke:#A80036;stroke-width:1.5;" width="262" x="20" y="39.9531"/><text fill="#000000" font-family="sans-serif" font-size="14" lengthAdjust="spacingAndGlyphs" textLength="124" x="27" y="82.6514">Kong API Gateway</text><svg x="155" y="46.9531"><g fill="none" fill-rule="evenodd"><path d="m110.095922 26.2962963h5.619555v-8.6419753h-5.619555zm5.588508-12.037037h4.31557v16.0493827c0 2.654321-.279425 3.1172839-.993513 3.8271605-.55885.5864197-1.459221.8641975-3.011584.8641975h-6.302595l-1.955978-2.1604938v-.8950618h7.9481v-2.191358h-5.433272c-1.645505 0-2.483781-.308642-3.166821-.9876543-.90037-.9259259-1.272938-2.9320988-1.272938-6.7283951s.434662-5.8950617 1.36608-6.8518518c.714087-.6790124 1.583411-.9567901 3.135774-.9567901l3.228916.0308642 2.142261 1.9444444zm-50.9175162-4.2592593h5.0917516l-7.3271547 9.2592593 7.6376274 10.4629629h-5.4022243l-5.8058387-8.2098765h-1.3660797v8.2098765h-4.5949954v-19.7222222h4.5949954v7.654321h1.3660797zm33.5310473 9.1358025v-1.4197531h-1.5523633c-.0310473 0-.0310473 0-.0620946 0h-1.2108433c-.0310473 0-.0310473 0-.0620946 0h-2.3906394v1.4197531 10.5246913h-4.2845227v-15.4012345h2.8253012 1.4592215v.2777777 1.6666667l2.1422613-1.9444444h1.2418906c.1862836-.0308642.4036145-.0308642.6209454-.0308642h1.8628359c1.3039849 0 2.1422609.2777777 2.7321599.8641975.651992.6172839.90037 1.4197531.90037 3.7037037v10.8641975h-4.2845225v-10.3395061c.0620946-.0617284.0620946-.1234568.0620946-.1851852zm-22.5713624 7.1296296h5.6195551v-8.6419753h-5.6195551zm.1862836 3.3950617c-1.5523633 0-2.3906395-.2469136-3.0426321-.9567901-.9935125-1.0185185-1.3971269-2.4074074-1.3971269-6.7592593 0-4.382716.4036144-5.7407407 1.3971269-6.7901234.6519926-.6790124 1.4902688-.9259259 3.0426321-.9259259h5.2159407c1.5523633 0 2.3906395.2469135 3.0426321.9259259.9935125 1.0493827 1.3971269 2.4074074 1.3971269 6.7901234 0 4.3827161-.4036144 5.7407408-1.3971269 6.7592593-.6830399.7098765-1.4902688.9567901-3.0426321.9567901z" fill="#043558"/><path d="m14 33.3688889 1.0606061-1.3688889h7.8484848l4.0909091 5.2266667-.7272727 1.7733333h-10.1212121l.2424242-1.7733333z" fill="#169fcc"/><path d="m16.4 15.5471311 3.7897092-6.5471311h4.4161074l19.7941834 22.9918033-1.5346756 7.0081967h-8.4876958l.5324385-1.9672131z" fill="#14b59a"/><path d="m21 7.75605214 1.8146067-3.3556797 5.4438203-4.40037244 9.3277153 7.31284916-1.2097378 1.23463687 1.6235955 2.24767227v2.405959l-4.6479401 3.7988827-7.7996254-9.24394786z" fill="#1bc263"/><path d="m6.58517555 22.3777778h2.46553966l6.42912879-5.3777778 8.520156 9.9-2.4031209 3.6055556h-7.8647595l-5.43042909 6.9055555-1.24837452 1.5888889h-7.05331599v-8.4638889z" fill="#16bdcc"/></g></svg><rect fill="#FEFECE" filter="url(#f1p0xe9bf5f9s8)" height="53" rx="2.5" ry="2.5" style="stroke:#A80036;stroke-width:1.5;" width="262" x="20" y="363.6875"/><text fill="#000000" font-family="sans-serif" font-size="14" lengthAdjust="spacingAndGlyphs" textLength="124" x="27" y="406.3857">Kong API Gateway</text><svg x="155" y="370.6875"><g fill="none" fill-rule="evenodd"><path d="m110.095922 26.2962963h5.619555v-8.6419753h-5.619555zm5.588508-12.037037h4.31557v16.0493827c0 2.654321-.279425 3.1172839-.993513 3.8271605-.55885.5864197-1.459221.8641975-3.011584.8641975h-6.302595l-1.955978-2.1604938v-.8950618h7.9481v-2.191358h-5.433272c-1.645505 0-2.483781-.308642-3.166821-.9876543-.90037-.9259259-1.272938-2.9320988-1.272938-6.7283951s.434662-5.8950617 1.36608-6.8518518c.714087-.6790124 1.583411-.9567901 3.135774-.9567901l3.228916.0308642 2.142261 1.9444444zm-50.9175162-4.2592593h5.0917516l-7.3271547 9.2592593 7.6376274 10.4629629h-5.4022243l-5.8058387-8.2098765h-1.3660797v8.2098765h-4.5949954v-19.7222222h4.5949954v7.654321h1.3660797zm33.5310473 9.1358025v-1.4197531h-1.5523633c-.0310473 0-.0310473 0-.0620946 0h-1.2108433c-.0310473 0-.0310473 0-.0620946 0h-2.3906394v1.4197531 10.5246913h-4.2845227v-15.4012345h2.8253012 1.4592215v.2777777 1.6666667l2.1422613-1.9444444h1.2418906c.1862836-.0308642.4036145-.0308642.6209454-.0308642h1.8628359c1.3039849 0 2.1422609.2777777 2.7321599.8641975.651992.6172839.90037 1.4197531.90037 3.7037037v10.8641975h-4.2845225v-10.3395061c.0620946-.0617284.0620946-.1234568.0620946-.1851852zm-22.5713624 7.1296296h5.6195551v-8.6419753h-5.6195551zm.1862836 3.3950617c-1.5523633 0-2.3906395-.2469136-3.0426321-.9567901-.9935125-1.0185185-1.3971269-2.4074074-1.3971269-6.7592593 0-4.382716.4036144-5.7407407 1.3971269-6.7901234.6519926-.6790124 1.4902688-.9259259 3.0426321-.9259259h5.2159407c1.5523633 0 2.3906395.2469135 3.0426321.9259259.9935125 1.0493827 1.3971269 2.4074074 1.3971269 6.7901234 0 4.3827161-.4036144 5.7407408-1.3971269 6.7592593-.6830399.7098765-1.4902688.9567901-3.0426321.9567901z" fill="#043558"/><path d="m14 33.3688889 1.0606061-1.3688889h7.8484848l4.0909091 5.2266667-.7272727 1.7733333h-10.1212121l.2424242-1.7733333z" fill="#169fcc"/><path d="m16.4 15.5471311 3.7897092-6.5471311h4.4161074l19.7941834 22.9918033-1.5346756 7.0081967h-8.4876958l.5324385-1.9672131z" fill="#14b59a"/><path d="m21 7.75605214 1.8146067-3.3556797 5.4438203-4.40037244 9.3277153 7.31284916-1.2097378 1.23463687 1.6235955 2.24767227v2.405959l-4.6479401 3.7988827-7.7996254-9.24394786z" fill="#1bc263"/><path d="m6.58517555 22.3777778h2.46553966l6.42912879-5.3777778 8.520156 9.9-2.4031209 3.6055556h-7.8647595l-5.43042909 6.9055555-1.24837452 1.5888889h-7.05331599v-8.4638889z" fill="#16bdcc"/></g></svg><rect fill="#FEFECE" filter="url(#f1p0xe9bf5f9s8)" height="46" rx="2.5" ry="2.5" style="stroke:#A80036;stroke-width:1.5;" width="225" x="296" y="46.9531"/><text fill="#000000" font-family="sans-serif" font-size="14" lengthAdjust="spacingAndGlyphs" textLength="175" x="303" y="82.6514">OpenID Connect Provider</text><svg x="482" y="53.9531"><defs><style>.cls-1{fill:none;}.cls-2{clip-path:url(#clip-path);}.cls-3{fill:#4d4d4d;}.cls-4{fill:#e1e1e1;}.cls-5{fill:#c8c8c8;}.cls-6{fill:#c2c2c2;}.cls-7{fill:#c7c7c7;}.cls-8{fill:#cecece;}.cls-9{fill:#d3d3d3;}.cls-10{fill:#c6c6c6;}.cls-11{fill:#d5d5d5;}.cls-12{fill:#d0d0d0;}.cls-13{fill:#bfbfbf;}.cls-14{fill:#d9d9d9;}.cls-15{fill:#d4d4d4;}.cls-16{fill:#d8d8d8;}.cls-17{fill:#e2e2e2;}.cls-18{fill:#e4e4e4;}.cls-19{fill:#dedede;}.cls-20{fill:#c5c5c5;}.cls-21{fill:#d1d1d1;}.cls-22{fill:#ddd;}.cls-23{fill:#e3e3e3;}.cls-24{fill:#00b8e3;}.cls-25{fill:#33c6e9;}.cls-26{fill:#008aaa;}</style><clipPath id="clip-path"><rect class="cls-1" x="-0.01" width="32" height="32"/></clipPath></defs><title>keycloak_deliverables</title><g class="cls-2"><path class="cls-3" d="M27.39,9.5a0.24,0.24,0,0,1-.21-0.12L23.57,3.12A0.24,0.24,0,0,0,23.36,3H8.63a0.24,0.24,0,0,0-.21.12L4.68,9.62h0L1.06,15.88a0.24,0.24,0,0,0,0,.24l3.61,6.26,3.75,6.5a0.24,0.24,0,0,0,.21.12H23.36a0.24,0.24,0,0,0,.21-0.12l3.61-6.26a0.24,0.24,0,0,1,.21-0.12h4.5a0.27,0.27,0,0,0,.27-0.27V9.77a0.27,0.27,0,0,0-.27-0.27h-4.5Z"/><path class="cls-1" d="M31.89,9.5h-27a0.24,0.24,0,0,0-.21.12h0l-0.13.23L2.89,12.72,1.06,15.88a0.24,0.24,0,0,0,0,.24l0.4,0.69,3.22,5.57a0.24,0.24,0,0,0,.21.12h27a0.27,0.27,0,0,0,.27-0.27V9.77A0.27,0.27,0,0,0,31.89,9.5Z"/><path class="cls-4" d="M5.49,15.34l-4,1.46-0.4-.69a0.24,0.24,0,0,1,0-.24l1.83-3.16Z"/><polygon class="cls-5" points="29.5 16.51 32.16 16.13 32.16 19.22 29.5 16.51"/><path class="cls-6" d="M29.5,16.51l2.66,2.7v3a0.27,0.27,0,0,1-.27.27H28.8Z"/><polygon class="cls-7" points="29.5 16.51 28.8 22.5 25.08 22.5 23.95 19.78 29.5 16.51"/><polygon class="cls-8" points="29.5 16.51 32.16 13.27 32.16 16.13 29.5 16.51"/><path class="cls-9" d="M32.16,9.77v3.5L29.5,16.51l-2-7h4.4A0.27,0.27,0,0,1,32.16,9.77Z"/><polygon class="cls-10" points="25.08 22.5 23.11 22.5 22.61 21.77 23.95 19.78 25.08 22.5"/><polygon class="cls-11" points="29.5 16.51 22.14 13.4 26.01 9.5 27.49 9.5 29.5 16.51"/><path class="cls-12" d="M22.14,13.4l1.81,6.38,5.55-3.27Z"/><polygon class="cls-13" points="23.11 22.5 22.58 22.5 22.61 21.77 23.11 22.5"/><polygon class="cls-14" points="26.01 9.5 22.14 13.4 21.44 9.91 22.93 9.5 26.01 9.5"/><path class="cls-15" d="M22.14,13.4L13.2,15.46l9.4,6.31Z"/><path class="cls-12" d="M22.14,13.4l0.47,8.37,1.34-2Z"/><path class="cls-14" d="M21.44,9.91L13.2,15.46l8.93-2.06Z"/><polygon class="cls-16" points="13.2 15.46 9.33 22.5 7.12 22.5 5.49 15.34 13.2 15.46"/><path class="cls-17" d="M9.23,9.5L5.49,15.34l-1-5.49,0.13-.23h0A0.24,0.24,0,0,1,4.88,9.5H9.23Z"/><path class="cls-16" d="M7.12,22.5H4.88a0.24,0.24,0,0,1-.21-0.12L1.46,16.81l4-1.46Z"/><polygon class="cls-18" points="5.49 15.34 2.89 12.71 4.54 9.85 5.49 15.34"/><polygon class="cls-19" points="17.29 9.5 14.71 9.5 10.76 9.5 13.2 15.46 21.44 9.91 18.96 9.5 17.29 9.5"/><polygon class="cls-19" points="9.74 9.5 9.23 9.5 5.49 15.34 13.2 15.46 10.76 9.5 9.74 9.5"/><polygon class="cls-20" points="20.81 22.5 22.25 22.5 22.58 22.5 22.61 21.77 20.81 22.5"/><polygon class="cls-12" points="22.61 21.77 13.2 15.46 14.9 22.5 17.29 22.5 20.81 22.5 22.61 21.77"/><polygon class="cls-21" points="9.33 22.5 9.74 22.5 14.71 22.5 14.9 22.5 13.2 15.46 9.33 22.5"/><polygon class="cls-22" points="21.46 9.5 21.44 9.91 22.93 9.5 22.25 9.5 21.46 9.5"/><polygon class="cls-23" points="18.96 9.5 21.44 9.91 21.21 9.5 18.96 9.5"/><polygon class="cls-17" points="21.21 9.5 21.44 9.91 21.46 9.5 21.21 9.5"/><path class="cls-24" d="M14.68,9.61L11.05,15.9a0.21,0.21,0,0,0,0,.1H8.49l5-8.64a0.2,0.2,0,0,1,.07.07h0l1.13,2A0.22,0.22,0,0,1,14.68,9.61Z"/><path class="cls-25" d="M14.68,22.62l-1.13,2a0.22,0.22,0,0,1-.08.07L8.49,16H11a0.19,0.19,0,0,0,0,.1h0l3.63,6.29A0.21,0.21,0,0,1,14.68,22.62Z"/><path class="cls-26" d="M13.47,7.37L8.49,16h0L7.24,18.17,6,16.1A0.19,0.19,0,0,1,6,16a0.21,0.21,0,0,1,0-.1l1.21-2.09,3.67-6.36a0.21,0.21,0,0,1,.19-0.11h2.25Z"/><path class="cls-24" d="M13.47,24.64l-0.11,0H11.11a0.21,0.21,0,0,1-.19-0.11L7.57,18.75l-0.33-.58L8.49,16Z"/><path class="cls-26" d="M23.5,16l-5,8.64a0.23,0.23,0,0,1-.07-0.07h0l-1.13-2a0.22,0.22,0,0,1,0-.2l3.63-6.29A0.21,0.21,0,0,0,21,16H23.5Z"/><path class="cls-24" d="M26,16a0.21,0.21,0,0,1,0,.11l-4.88,8.46a0.21,0.21,0,0,1-.18.1H18.62a0.23,0.23,0,0,1-.11,0l5-8.64,1.25-2.16,1.19,2.06A0.21,0.21,0,0,1,26,16Z"/><path class="cls-24" d="M23.5,16H21a0.21,0.21,0,0,0,0-.11L17.31,9.61a0.21,0.21,0,0,1,0-.22l1.13-2a0.23,0.23,0,0,1,.07-0.07Z"/><path class="cls-25" d="M24.75,13.84h0L23.5,16l-5-8.64a0.23,0.23,0,0,1,.11,0h2.25a0.21,0.21,0,0,1,.18.1Z"/></g></svg><rect fill="#FEFECE" filter="url(#f1p0xe9bf5f9s8)" height="46" rx="2.5" ry="2.5" style="stroke:#A80036;stroke-width:1.5;" width="225" x="296" y="363.6875"/><text fill="#000000" font-family="sans-serif" font-size="14" lengthAdjust="spacingAndGlyphs" textLength="175" x="303" y="399.3857">OpenID Connect Provider</text><svg x="482" y="370.6875"><defs><style>.cls-1{fill:none;}.cls-2{clip-path:url(#clip-path);}.cls-3{fill:#4d4d4d;}.cls-4{fill:#e1e1e1;}.cls-5{fill:#c8c8c8;}.cls-6{fill:#c2c2c2;}.cls-7{fill:#c7c7c7;}.cls-8{fill:#cecece;}.cls-9{fill:#d3d3d3;}.cls-10{fill:#c6c6c6;}.cls-11{fill:#d5d5d5;}.cls-12{fill:#d0d0d0;}.cls-13{fill:#bfbfbf;}.cls-14{fill:#d9d9d9;}.cls-15{fill:#d4d4d4;}.cls-16{fill:#d8d8d8;}.cls-17{fill:#e2e2e2;}.cls-18{fill:#e4e4e4;}.cls-19{fill:#dedede;}.cls-20{fill:#c5c5c5;}.cls-21{fill:#d1d1d1;}.cls-22{fill:#ddd;}.cls-23{fill:#e3e3e3;}.cls-24{fill:#00b8e3;}.cls-25{fill:#33c6e9;}.cls-26{fill:#008aaa;}</style><clipPath id="clip-path"><rect class="cls-1" x="-0.01" width="32" height="32"/></clipPath></defs><title>keycloak_deliverables</title><g class="cls-2"><path class="cls-3" d="M27.39,9.5a0.24,0.24,0,0,1-.21-0.12L23.57,3.12A0.24,0.24,0,0,0,23.36,3H8.63a0.24,0.24,0,0,0-.21.12L4.68,9.62h0L1.06,15.88a0.24,0.24,0,0,0,0,.24l3.61,6.26,3.75,6.5a0.24,0.24,0,0,0,.21.12H23.36a0.24,0.24,0,0,0,.21-0.12l3.61-6.26a0.24,0.24,0,0,1,.21-0.12h4.5a0.27,0.27,0,0,0,.27-0.27V9.77a0.27,0.27,0,0,0-.27-0.27h-4.5Z"/><path class="cls-1" d="M31.89,9.5h-27a0.24,0.24,0,0,0-.21.12h0l-0.13.23L2.89,12.72,1.06,15.88a0.24,0.24,0,0,0,0,.24l0.4,0.69,3.22,5.57a0.24,0.24,0,0,0,.21.12h27a0.27,0.27,0,0,0,.27-0.27V9.77A0.27,0.27,0,0,0,31.89,9.5Z"/><path class="cls-4" d="M5.49,15.34l-4,1.46-0.4-.69a0.24,0.24,0,0,1,0-.24l1.83-3.16Z"/><polygon class="cls-5" points="29.5 16.51 32.16 16.13 32.16 19.22 29.5 16.51"/><path class="cls-6" d="M29.5,16.51l2.66,2.7v3a0.27,0.27,0,0,1-.27.27H28.8Z"/><polygon class="cls-7" points="29.5 16.51 28.8 22.5 25.08 22.5 23.95 19.78 29.5 16.51"/><polygon class="cls-8" points="29.5 16.51 32.16 13.27 32.16 16.13 29.5 16.51"/><path class="cls-9" d="M32.16,9.77v3.5L29.5,16.51l-2-7h4.4A0.27,0.27,0,0,1,32.16,9.77Z"/><polygon class="cls-10" points="25.08 22.5 23.11 22.5 22.61 21.77 23.95 19.78 25.08 22.5"/><polygon class="cls-11" points="29.5 16.51 22.14 13.4 26.01 9.5 27.49 9.5 29.5 16.51"/><path class="cls-12" d="M22.14,13.4l1.81,6.38,5.55-3.27Z"/><polygon class="cls-13" points="23.11 22.5 22.58 22.5 22.61 21.77 23.11 22.5"/><polygon class="cls-14" points="26.01 9.5 22.14 13.4 21.44 9.91 22.93 9.5 26.01 9.5"/><path class="cls-15" d="M22.14,13.4L13.2,15.46l9.4,6.31Z"/><path class="cls-12" d="M22.14,13.4l0.47,8.37,1.34-2Z"/><path class="cls-14" d="M21.44,9.91L13.2,15.46l8.93-2.06Z"/><polygon class="cls-16" points="13.2 15.46 9.33 22.5 7.12 22.5 5.49 15.34 13.2 15.46"/><path class="cls-17" d="M9.23,9.5L5.49,15.34l-1-5.49,0.13-.23h0A0.24,0.24,0,0,1,4.88,9.5H9.23Z"/><path class="cls-16" d="M7.12,22.5H4.88a0.24,0.24,0,0,1-.21-0.12L1.46,16.81l4-1.46Z"/><polygon class="cls-18" points="5.49 15.34 2.89 12.71 4.54 9.85 5.49 15.34"/><polygon class="cls-19" points="17.29 9.5 14.71 9.5 10.76 9.5 13.2 15.46 21.44 9.91 18.96 9.5 17.29 9.5"/><polygon class="cls-19" points="9.74 9.5 9.23 9.5 5.49 15.34 13.2 15.46 10.76 9.5 9.74 9.5"/><polygon class="cls-20" points="20.81 22.5 22.25 22.5 22.58 22.5 22.61 21.77 20.81 22.5"/><polygon class="cls-12" points="22.61 21.77 13.2 15.46 14.9 22.5 17.29 22.5 20.81 22.5 22.61 21.77"/><polygon class="cls-21" points="9.33 22.5 9.74 22.5 14.71 22.5 14.9 22.5 13.2 15.46 9.33 22.5"/><polygon class="cls-22" points="21.46 9.5 21.44 9.91 22.93 9.5 22.25 9.5 21.46 9.5"/><polygon class="cls-23" points="18.96 9.5 21.44 9.91 21.21 9.5 18.96 9.5"/><polygon class="cls-17" points="21.21 9.5 21.44 9.91 21.46 9.5 21.21 9.5"/><path class="cls-24" d="M14.68,9.61L11.05,15.9a0.21,0.21,0,0,0,0,.1H8.49l5-8.64a0.2,0.2,0,0,1,.07.07h0l1.13,2A0.22,0.22,0,0,1,14.68,9.61Z"/><path class="cls-25" d="M14.68,22.62l-1.13,2a0.22,0.22,0,0,1-.08.07L8.49,16H11a0.19,0.19,0,0,0,0,.1h0l3.63,6.29A0.21,0.21,0,0,1,14.68,22.62Z"/><path class="cls-26" d="M13.47,7.37L8.49,16h0L7.24,18.17,6,16.1A0.19,0.19,0,0,1,6,16a0.21,0.21,0,0,1,0-.1l1.21-2.09,3.67-6.36a0.21,0.21,0,0,1,.19-0.11h2.25Z"/><path class="cls-24" d="M13.47,24.64l-0.11,0H11.11a0.21,0.21,0,0,1-.19-0.11L7.57,18.75l-0.33-.58L8.49,16Z"/><path class="cls-26" d="M23.5,16l-5,8.64a0.23,0.23,0,0,1-.07-0.07h0l-1.13-2a0.22,0.22,0,0,1,0-.2l3.63-6.29A0.21,0.21,0,0,0,21,16H23.5Z"/><path class="cls-24" d="M26,16a0.21,0.21,0,0,1,0,.11l-4.88,8.46a0.21,0.21,0,0,1-.18.1H18.62a0.23,0.23,0,0,1-.11,0l5-8.64,1.25-2.16,1.19,2.06A0.21,0.21,0,0,1,26,16Z"/><path class="cls-24" d="M23.5,16H21a0.21,0.21,0,0,0,0-.11L17.31,9.61a0.21,0.21,0,0,1,0-.22l1.13-2a0.23,0.23,0,0,1,.07-0.07Z"/><path class="cls-25" d="M24.75,13.84h0L23.5,16l-5-8.64a0.23,0.23,0,0,1,.11,0h2.25a0.21,0.21,0,0,1,.18.1Z"/></g></svg><rect fill="#FFFFFF" filter="url(#f1p0xe9bf5f9s8)" height="131.5313" style="stroke:#FFFFFF;stroke-width:1.0;" width="10" x="148" y="153.2188"/><line style="stroke:#A80036;stroke-width:1.0;" x1="148" x2="148" y1="153.2188" y2="284.75"/><line style="stroke:#A80036;stroke-width:1.0;" x1="158" x2="158" y1="153.2188" y2="284.75"/><line style="stroke:#A80036;stroke-width:1.0;" x1="148" x2="158" y1="153.2188" y2="153.2188"/><rect fill="#FFFFFF" filter="url(#f1p0xe9bf5f9s8)" height="21.1328" style="stroke:#FFFFFF;stroke-width:1.0;" width="10" x="148" y="325.5547"/><line style="stroke:#A80036;stroke-width:1.0;" x1="148" x2="148" y1="325.5547" y2="346.6875"/><line style="stroke:#A80036;stroke-width:1.0;" x1="158" x2="158" y1="325.5547" y2="346.6875"/><line style="stroke:#A80036;stroke-width:1.0;" x1="148" x2="158" y1="346.6875" y2="346.6875"/><rect fill="#FFFFFF" filter="url(#f1p0xe9bf5f9s8)" height="131.5313" style="stroke:#FFFFFF;stroke-width:1.0;" width="10" x="405.5" y="153.2188"/><line style="stroke:#A80036;stroke-width:1.0;" x1="405.5" x2="405.5" y1="153.2188" y2="284.75"/><line style="stroke:#A80036;stroke-width:1.0;" x1="415.5" x2="415.5" y1="153.2188" y2="284.75"/><line style="stroke:#A80036;stroke-width:1.0;" x1="405.5" x2="415.5" y1="153.2188" y2="153.2188"/><rect fill="#FFFFFF" filter="url(#f1p0xe9bf5f9s8)" height="21.1328" style="stroke:#FFFFFF;stroke-width:1.0;" width="10" x="405.5" y="325.5547"/><line style="stroke:#A80036;stroke-width:1.0;" x1="405.5" x2="405.5" y1="325.5547" y2="346.6875"/><line style="stroke:#A80036;stroke-width:1.0;" x1="415.5" x2="415.5" y1="325.5547" y2="346.6875"/><line style="stroke:#A80036;stroke-width:1.0;" x1="405.5" x2="415.5" y1="346.6875" y2="346.6875"/><path d="M12.5,114.9531 L80,114.9531 L80,121.9531 L70,131.9531 L10,131.9531 L10,117.4531 " fill="#FFFFFF" style="stroke:#000000;stroke-width:1.0;"/><rect fill="none" height="75.3984" rx="2.5" ry="2.5" style="stroke:#000000;stroke-width:2.0;" width="525" x="10" y="114.9531"/><text fill="#000000" font-family="sans-serif" font-size="13" font-weight="bold" lengthAdjust="spacingAndGlyphs" textLength="25" x="25" y="128.02">opt</text><polygon fill="#A80036" points="393.5,149.2188,403.5,153.2188,393.5,157.2188,397.5,153.2188" style="stroke:#A80036;stroke-width:1.0;"/><line style="stroke:#A80036;stroke-width:1.0;" x1="158" x2="399.5" y1="153.2188" y2="153.2188"/><text fill="#000000" font-family="sans-serif" font-size="13" lengthAdjust="spacingAndGlyphs" textLength="88" x="165" y="148.1528">[1] WebFinger</text><path d="M262.8425,139.3021 C262.6367,139.3238 262.4417,139.4646 262.3333,139.6704 C262.1925,139.9521 261.1525,142.0429 260.9467,142.2488 C260.7408,142.4546 260.47,142.5521 260.1667,142.5521 L260.1667,146.8854 L263.9583,146.8854 C264.1858,146.8854 264.3808,146.7446 264.4675,146.5496 C264.4675,146.5496 265.5833,143.3971 265.5833,143.0938 C265.5833,142.7904 265.345,142.5521 265.0417,142.5521 L263.4167,142.5521 C263.1133,142.5521 262.875,142.2813 262.875,142.0104 C262.875,141.7396 263.2975,140.2988 263.3842,140.0171 C263.4708,139.7354 263.33,139.4321 263.0483,139.3346 C262.9725,139.3129 262.9183,139.2913 262.8425,139.3021 M258,142.5521 L258,146.8854 L259.0833,146.8854 L259.0833,142.5521 L258,142.5521 " fill="#000000" style="stroke:;stroke-width:0.0;stroke-dasharray:;"/><polygon fill="#A80036" points="169,178.3516,159,182.3516,169,186.3516,165,182.3516" style="stroke:#A80036;stroke-width:1.0;"/><line style="stroke:#A80036;stroke-width:1.0;" x1="163" x2="404.5" y1="182.3516" y2="182.3516"/><text fill="#000000" font-family="sans-serif" font-size="13" lengthAdjust="spacingAndGlyphs" textLength="159" x="175" y="177.2856">[2] WebFinger Document</text><path d="M345.9442,168.4349 L345.1967,169.2149 L342.185,172.2266 L341.3075,171.3816 L340.5275,170.6016 L339,172.1291 L339.78,172.9091 L341.405,174.5341 L342.1525,175.3141 L342.9325,174.5341 L346.7242,170.7424 L347.5042,169.9624 L345.9442,168.4349 " fill="#000000" style="stroke:;stroke-width:0.0;stroke-dasharray:;"/><polygon fill="#A80036" points="393.5,214.4844,403.5,218.4844,393.5,222.4844,397.5,218.4844" style="stroke:#A80036;stroke-width:1.0;"/><line style="stroke:#A80036;stroke-width:1.0;" x1="158" x2="399.5" y1="218.4844" y2="218.4844"/><text fill="#000000" font-family="sans-serif" font-size="13" lengthAdjust="spacingAndGlyphs" textLength="84" x="165" y="213.4185">[3] Discovery</text><path d="M257.7917,204.5677 C255.7008,204.5677 254,206.2685 254,208.3594 C254,210.4502 255.7008,212.151 257.7917,212.151 C258.4308,212.151 259.0592,211.9994 259.59,211.7069 A1.0833,1.0833 0 0 0 259.7308,211.8477 L260.8142,212.931 A1.105,1.105 0 1 0 262.3742,211.371 L261.2908,210.2877 A1.0833,1.0833 0 0 0 261.1175,210.1469 C261.41,209.616 261.5942,208.9985 261.5942,208.3485 C261.5942,206.2577 259.8933,204.5569 257.8025,204.5569 M257.8025,205.6402 C259.3083,205.6402 260.5108,206.8427 260.5108,208.3485 C260.5108,209.0635 260.2508,209.7244 259.7958,210.2119 C259.785,210.2227 259.7742,210.2335 259.7633,210.2444 A1.0833,1.0833 0 0 0 259.6225,210.3852 C259.1458,210.8185 258.4958,211.0677 257.7917,211.0677 C256.2858,211.0677 255.0833,209.8652 255.0833,208.3594 C255.0833,206.8535 256.2858,205.651 257.7917,205.651 " fill="#000000" style="stroke:;stroke-width:0.0;stroke-dasharray:;"/><polygon fill="#A80036" points="169,243.6172,159,247.6172,169,251.6172,165,247.6172" style="stroke:#A80036;stroke-width:1.0;"/><line style="stroke:#A80036;stroke-width:1.0;" x1="163" x2="404.5" y1="247.6172" y2="247.6172"/><text fill="#000000" font-family="sans-serif" font-size="13" lengthAdjust="spacingAndGlyphs" textLength="155" x="175" y="242.5513">[4] Discovery Document</text><path d="M341.9442,233.7005 L341.1967,234.4805 L338.185,237.4922 L337.3075,236.6472 L336.5275,235.8672 L335,237.3947 L335.78,238.1747 L337.405,239.7997 L338.1525,240.5797 L338.9325,239.7997 L342.7242,236.008 L343.5042,235.228 L341.9442,233.7005 " fill="#000000" style="stroke:;stroke-width:0.0;stroke-dasharray:;"/><polygon fill="#A80036" points="393.5,272.75,403.5,276.75,393.5,280.75,397.5,276.75" style="stroke:#A80036;stroke-width:1.0;"/><line style="stroke:#A80036;stroke-width:1.0;" x1="158" x2="399.5" y1="276.75" y2="276.75"/><text fill="#000000" font-family="sans-serif" font-size="13" lengthAdjust="spacingAndGlyphs" textLength="119" x="165" y="271.6841">[5] JSON Web Keys</text><path d="M294.9583,262.8333 C293.4633,262.8333 292.25,264.0467 292.25,265.5417 C292.25,265.715 292.25,265.8883 292.2825,266.0508 L289,269.3333 L289,271.5 L292.25,271.5 L292.25,269.3333 L294.4167,269.3333 L294.4167,268.25 L294.4492,268.2175 C294.6117,268.25 294.785,268.25 294.9583,268.25 C296.4533,268.25 297.6667,267.0367 297.6667,265.5417 C297.6667,264.0467 296.4533,262.8333 294.9583,262.8333 M295.5,263.9167 C296.0958,263.9167 296.5833,264.4042 296.5833,265 C296.5833,265.5958 296.0958,266.0833 295.5,266.0833 C294.9042,266.0833 294.4167,265.5958 294.4167,265 C294.4167,264.4042 294.9042,263.9167 295.5,263.9167 " fill="#000000" style="stroke:;stroke-width:0.0;stroke-dasharray:;"/><text fill="#000000" font-family="sans-serif" font-size="11" lengthAdjust="spacingAndGlyphs" textLength="89" x="237.25" y="308.9604">5 seconds later</text><polygon fill="#A80036" points="164,342.6875,154,346.6875,164,350.6875,160,346.6875" style="stroke:#A80036;stroke-width:1.0;"/><line style="stroke:#A80036;stroke-width:1.0;" x1="158" x2="409.5" y1="346.6875" y2="346.6875"/><text fill="#000000" font-family="sans-serif" font-size="13" lengthAdjust="spacingAndGlyphs" textLength="190" x="170" y="341.6216">[6] JSON Web Keys Document</text><path d="M371.9442,332.7708 L371.1967,333.5508 L368.185,336.5625 L367.3075,335.7175 L366.5275,334.9375 L365,336.465 L365.78,337.245 L367.405,338.87 L368.1525,339.65 L368.9325,338.87 L372.7242,335.0783 L373.5042,334.2983 L371.9442,332.7708 " fill="#000000" style="stroke:;stroke-width:0.0;stroke-dasharray:;"/><!--MD5=[4ce00b4da43b3d0bbe30d2ed021276c4]
@startuml OpenID Connect Discovery

' https://plantuml.com/sequence-diagram
' https://docs.konghq.com/hub/kong-inc/openid-connect/
' https://crashedmind.github.io/PlantUMLHitchhikersGuide/index.html

title OpenID Connect Discovery

participant "Kong API Gateway <img:https://2tjosk2rxzc21medji3nfn1g-wpengine.netdna-ssl.com/wp-content/themes/konghq/assets/img/gradient-logo.svg>" as kong
participant "OpenID Connect Provider <img:https://raw.githubusercontent.com/keycloak/keycloak-misc/master/logo/keycloak_icon_32px.svg>" as oidc

skinparam RoundCorner 5
skinparam SequenceGroupBackgroundColor white
skinparam SequenceGroupBodyBackgroundColor lightgrey

group opt
kong -> oidc : [1] WebFinger <&thumb-up>
activate kong
activate oidc

oidc -> kong : [2] WebFinger Document <&check>
end

kong -> oidc : [3] Discovery <&magnifying-glass>
oidc -> kong : [4] Discovery Document <&check>
kong -> oidc : [5] JSON Web Keys <&key>

... 5 seconds later ...

oidc -> kong : [6] JSON Web Keys Document <&check>
deactivate oidc
deactivate kong

@enduml

@startuml OpenID Connect Discovery


title OpenID Connect Discovery

participant "Kong API Gateway <img:https://2tjosk2rxzc21medji3nfn1g-wpengine.netdna-ssl.com/wp-content/themes/konghq/assets/img/gradient-logo.svg>" as kong
participant "OpenID Connect Provider <img:https://raw.githubusercontent.com/keycloak/keycloak-misc/master/logo/keycloak_icon_32px.svg>" as oidc

skinparam RoundCorner 5
skinparam SequenceGroupBackgroundColor white
skinparam SequenceGroupBodyBackgroundColor lightgrey

group opt
kong -> oidc : [1] WebFinger <&thumb-up>
activate kong
activate oidc

oidc -> kong : [2] WebFinger Document <&check>
end

kong -> oidc : [3] Discovery <&magnifying-glass>
oidc -> kong : [4] Discovery Document <&check>
kong -> oidc : [5] JSON Web Keys <&key>

... 5 seconds later ...

oidc -> kong : [6] JSON Web Keys Document <&check>
deactivate oidc
deactivate kong

@enduml

PlantUML version 1.2020.22(Sun Dec 06 01:36:27 PST 2020)
(GPL source distribution)
Java Runtime: OpenJDK Runtime Environment
JVM: OpenJDK 64-Bit Server VM
Default Encoding: UTF-8
Language: en
Country: null
--></g></svg>